# xmcd
#
# Track frame offsets:
#	150
#	17262
#	30472
#	48365
#	64687
#	77910
#	90980
#	106112
#	119665
#	134150
#	146317
#	166915
#	184600
#	200382
#	216700
#
# Disc length: 3068 seconds
#
# Revision: 3
# Processed by: cddbd v1.5.1PL0 Copyright (c) Steve Scherf et al.
# Submitted via: dBpowerAMP V4.0
#
DISCID=ca0bfa0f
DTITLE=Various Artist - The Ultimate Soul Collection (Disc2)
DYEAR=1900
DGENRE=Soul
TTITLE0=The Temptations - Just My Imagination
TTITLE1=The Stylistics - You Are Everything
TTITLE2=Marvin Gaye - Let's Get It On
TTITLE3=The Chi-Lites - Oh Girl
TTITLE4=Dionne Warwick - Walk On By
TTITLE5=Ben E. King - Spanish Harlem
TTITLE6=The Delfonics - Didn't I(Blow Your Mind This Time)
TTITLE7=Three Degrees - When Will I See You Again
TTITLE8=Al Green - I'm Still In Love With You
TTITLE9=Aaron Neville - Tell It Like It Is
TTITLE10=Champaign - How 'bout Us
TTITLE11=Rose Royce - Love Don't Live Here Anymore
TTITLE12=The 5th Dimension - One Less Bell To Answer
TTITLE13=Harold Melvin and The Blue Notes - If You Don't Know Me By Now
TTITLE14=James and Bobby Purify - I'm Your Puppet
EXTD=
EXTT0=
EXTT1=
EXTT2=
EXTT3=
EXTT4=
EXTT5=
EXTT6=
EXTT7=
EXTT8=
EXTT9=
EXTT10=
EXTT11=
EXTT12=
EXTT13=
EXTT14=
PLAYORDER=
